# xmcd
# Copyright (C) 1995-1998 Ti Kan
#
# Track frame offsets:
#       150
#       17168
#       33318
#
# Disc length: 580 seconds
#
# Revision: 0
# Processed by: cddbd v1.5.2PL0 Copyright (c) Steve Scherf et al.
# Submitted via: CD-Import v1.0
#
DISCID=1a024203
DTITLE=Gustav - Verlass Die Stadt
DYEAR=1900
DGENRE=
TTITLE0=Alles Renkt Sich Wieder Ein
TTITLE1=Heimweh
TTITLE2=Memories Are Made Of This
EXTD=
EXTT0=
EXTT1=
EXTT2=
PLAYORDER=
